# xmcd
#
# Track frame offsets: 
#        150
#        14158
#        30553
#        42664
#        52945
#        68150
#        76982
#        93860
#        102256
#        113498
#        128130
#        144619
#        163698
#        171187
#        185085
#        197185
#        213719
#        230297
#        245059
#        252040
#        270038
#
# Disc length: 3821 seconds
#
# Revision: 0
# Processed by: cddbd v1.5.2PL0 Copyright (c) Steve Scherf et al.
# Submitted via: ExactAudioCopy v1.2
#
DISCID=250eeb15
DTITLE=Marty Stuart - The Definitive Collection Vol. 2 [CD1]
DYEAR=2019
DGENRE=Country
TTITLE0=Sundown in Nashville
TTITLE1=A Satisfied Mind
TTITLE2=The Whiskey Ain't Workin' [feat. Travis Tritt]
TTITLE3=Freight Train Boogie
TTITLE4=A Song of Sadness
TTITLE5=Keep Her Off Your Mind
TTITLE6=Truck Drivers' Blues
TTITLE7=La Tingo Tango
TTITLE8=Talking to the Wall
TTITLE9=Rocket Ship
TTITLE10=Homesick
TTITLE11=I Can See for Miles [feat. Old Crow Medicine Show]
TTITLE12=Crazy Arms [feat: Ralph Mooney]
TTITLE13=Drifting Apart
TTITLE14=The Wild One
TTITLE15=Will You Visit Me On Sunday [feat. Loretta Lynn]
TTITLE16=Streamline [feat. Tommy Emmanuel]
TTITLE17=Old, Old House
TTITLE18=Good News
TTITLE19=Picture from Life's Other Side [feat. Hank 3]
TTITLE20=Boogie Woogie Down the Jericho Road
EXTD=
EXTT0=
EXTT1=
EXTT2=
EXTT3=
EXTT4=
EXTT5=
EXTT6=
EXTT7=
EXTT8=
EXTT9=
EXTT10=
EXTT11=
EXTT12=
EXTT13=
EXTT14=
EXTT15=
EXTT16=
EXTT17=
EXTT18=
EXTT19=
EXTT20=
PLAYORDER=
